<svg xmlns="http://www.w3.org/2000/svg" xmlns:xlink="http://www.w3.org/1999/xlink" width="550.08" height="550.08" viewBox="0 0 550.08 550.08">
  <defs>
    <clipPath id="clip-path">
      <rect id="Rectangle_524" data-name="Rectangle 524" width="550.08" height="550.08" fill="none"/>
    </clipPath>
  </defs>
  <g id="Group_2056" data-name="Group 2056" clip-path="url(#clip-path)">
    <path id="Path_2415" data-name="Path 2415" d="M279.129,89.082c-.289-.006-.577-.021-.866-.026l.009.015a18.032,18.032,0,0,1,.857,1.7,18.248,18.248,0,0,1,1.378,4.933c.043.321.081.639.109.952.253-.312.516-.617.782-.919a31.63,31.63,0,0,1,7.456-6.215c-3.225-.235-6.47-.37-9.725-.438" fill="#fff"/>
    <path id="Path_2416" data-name="Path 2416" d="M239.13,120.137v0a7.5,7.5,0,0,0-7.669-7.632,7.018,7.018,0,0,0-5.111,2.166,8.246,8.246,0,0,0-2.189,5.472l-.014.326h4.2l.031-.28a3.906,3.906,0,0,1,1.115-2.531,3.1,3.1,0,0,1,2.248-.882,3.056,3.056,0,0,1,2.362.994,3.582,3.582,0,0,1,.812,2.315,4.7,4.7,0,0,1-.13,1.07,4.513,4.513,0,0,1-.723,1.307l-9.849,12.533-.051.065v3.862H239.13v-4.278h-9.282l7.694-9.818a7.493,7.493,0,0,0,1.588-4.686" fill="#fff"/>
    <path id="Path_2417" data-name="Path 2417" d="M252.666,114.377a7.409,7.409,0,0,0-5.193-1.979,7.348,7.348,0,0,0-7.442,7.654v11.3a7.241,7.241,0,0,0,2.332,5.663,7.5,7.5,0,0,0,5.116,2.007,7.32,7.32,0,0,0,7.453-7.685V120.057a7.555,7.555,0,0,0-2.266-5.68m-1.956,16.76c-.065,2.444-1.093,3.591-3.233,3.612-2.13-.021-3.187-1.2-3.23-3.6V120.284c.044-2.388,1.1-3.571,3.219-3.615,2.149.045,3.179,1.195,3.244,3.611Z" fill="#fff"/>
    <path id="Path_2418" data-name="Path 2418" d="M324.34,124.792a7.625,7.625,0,0,0-6.1-12.366,7.046,7.046,0,0,0-5.131,2.173,8.284,8.284,0,0,0-2.2,5.492l-.014.326h4.216l.028-.279a3.944,3.944,0,0,1,1.12-2.543,3.12,3.12,0,0,1,2.258-.884,3.062,3.062,0,0,1,2.371,1,3.594,3.594,0,0,1,.815,2.324,4.687,4.687,0,0,1-.131,1.075,4.491,4.491,0,0,1-.725,1.311L310.96,135l-.051.064v3.875h15.025V134.65h-9.319l7.724-9.856Z" fill="#fff"/>
    <path id="Path_2419" data-name="Path 2419" d="M301.986,112.425a7.049,7.049,0,0,0-5.13,2.174,8.282,8.282,0,0,0-2.2,5.491l-.014.327h4.216l.028-.28a3.948,3.948,0,0,1,1.119-2.543,3.123,3.123,0,0,1,2.259-.884,3.069,3.069,0,0,1,2.371,1,3.6,3.6,0,0,1,.815,2.324,4.784,4.784,0,0,1-.131,1.076,4.515,4.515,0,0,1-.725,1.311L294.71,135l-.051.065v3.874h15.025v-4.291h-9.319l7.725-9.858a7.518,7.518,0,0,0,1.594-4.7v0a7.525,7.525,0,0,0-7.7-7.659" fill="#fff"/>
    <path id="Path_2420" data-name="Path 2420" d="M461.063,275.04A186.177,186.177,0,0,0,318.476,94.1L317.2,96.838a24.018,24.018,0,0,1-1.874,3.3,179.771,179.771,0,1,1-56.134-3.822,17.846,17.846,0,0,1-.8-6.55A186.025,186.025,0,1,0,461.063,275.04" fill="#fff"/>
    <path id="Path_2421" data-name="Path 2421" d="M274.155,105.067c.549.436.419,2,.476,3.217a5.164,5.164,0,0,0,.092.831,2.187,2.187,0,0,0-1.539,1.707c-.091,1.294,1.579,2.461,3.729,2.609q.227.015.447.015c.21,0,.416-.01.616-.03,1.657-.165,2.921-.987,3-2.061.09-1.27-1.521-2.418-3.617-2.6.064-.125.128-.241.192-.36,1.7-3.163,3.216-4.229,5.424-4.449.325-.032.666-.046,1.023-.046,2.012,0,4.585.447,8.219.627.835.079,1.73.127,2.664.127.827,0,1.683-.037,2.557-.124A17.09,17.09,0,0,0,312.18,94.5a14.794,14.794,0,0,0-4.609-2.658,15.029,15.029,0,0,0-5.046-.85c-.057,0-.114.008-.171.009-.507,0-1.015.026-1.523.077a23.364,23.364,0,0,0-11.84,5.073,25.61,25.61,0,0,0-4.447,4.47c-3.139,3.116-6.411,3.993-8.252,7.676-.079.158-.16.313-.233.482-.034,0-.066.01-.1.015-.082-.173-.156-.347-.225-.521-1.55-3.924.041-8.131-.86-12.657a12.358,12.358,0,0,0-1.417-3.807,10.875,10.875,0,0,0-2.39-2.741c-1.894-1.625-4.3-2.92-5.893-2.92-.089,0-.176,0-.26.012a2.209,2.209,0,0,0-.278.046,16.813,16.813,0,0,0-.631,3.147,13.055,13.055,0,0,0,.975,6.547c2.187,5.1,7.2,7.95,9.175,9.17" fill="#fff"/>
    <path id="Path_2422" data-name="Path 2422" d="M257.865,130.152a17.9,17.9,0,0,0,34.846-8.174,17.649,17.649,0,0,0-6.263-9.82c-.452-.357-.919-.694-1.4-1.006,0,.146,0,.293-.014.442-.222,3.152-2.927,5.524-6.73,5.9a10.454,10.454,0,0,1-1.753.025c-4.575-.313-7.828-3.334-7.568-7.027a5.618,5.618,0,0,1,.214-1.138c-.5.179-.982.383-1.456.6a17.772,17.772,0,0,0-9.873,20.194" fill="#fff"/>
    <path id="Path_2423" data-name="Path 2423" d="M370.731,88.5c.654.55,1.317,1.066,1.977,1.539a27.41,27.41,0,0,0,2.786,1.751,15.022,15.022,0,0,0,4.155,1.614,9.339,9.339,0,0,0,3.46.114,6.219,6.219,0,0,0,2.678-1.127,7.058,7.058,0,0,0,1.964-2.305,7.439,7.439,0,0,0,.939-3.178,7.154,7.154,0,0,0-.606-3.237,10.5,10.5,0,0,0-2.305-3.235,18.821,18.821,0,0,0-4.192-3.027c-1.09-.6-2.016-1.085-2.779-1.459-.341-.167-.657-.313-.948-.435Z" fill="#fff"/>
    <path id="Path_2424" data-name="Path 2424" d="M59.745,166.661a6.876,6.876,0,0,0-2.4,1.433,9.269,9.269,0,0,0-1.953,2.583,24.806,24.806,0,0,0-1.227,3.309l13.476,6.606.253-.517a16.7,16.7,0,0,0,1.56-4.59,9.152,9.152,0,0,0-.06-3.622,6.525,6.525,0,0,0-1.355-2.7,7.742,7.742,0,0,0-2.533-1.93,8.526,8.526,0,0,0-3.016-.88,6.7,6.7,0,0,0-2.749.309" fill="#fff"/>
    <path id="Path_2425" data-name="Path 2425" d="M314.6,486.213a6.682,6.682,0,0,0-1.9-2.042,7.076,7.076,0,0,0-2.635-1.1,9.781,9.781,0,0,0-3.34-.068,26.679,26.679,0,0,0-3.529.959l2.495,14.8.615-.1a17.645,17.645,0,0,0,4.779-1.438,9.55,9.55,0,0,0,3.008-2.186,6.606,6.606,0,0,0,1.454-2.685,7.6,7.6,0,0,0,.105-3.177,8.35,8.35,0,0,0-1.056-2.953" fill="#fff"/>
    <path id="Path_2426" data-name="Path 2426" d="M384.13,73.628a19.039,19.039,0,0,0,4.416,1.842,8.215,8.215,0,0,0,3.287.231,4.975,4.975,0,0,0,2.393-1.051,7.742,7.742,0,0,0,1.895-2.343,6.929,6.929,0,0,0,.838-2.758,6.355,6.355,0,0,0-.454-2.882,9.62,9.62,0,0,0-1.967-2.965,15.072,15.072,0,0,0-3.757-2.787c-.857-.47-1.692-.88-2.484-1.221-.485-.209-.97-.391-1.449-.544l-6.636,12.082q.571.432,1.231.841c.756.468,1.634.977,2.687,1.555" fill="#fff"/>
    <path id="Path_2427" data-name="Path 2427" d="M333.033,73.835a10.42,10.42,0,0,0,4.543,2.825,11.914,11.914,0,0,0,5.08.582,10.29,10.29,0,0,0,4.653-1.76,15.807,15.807,0,0,0,4.163-4.385,30.173,30.173,0,0,0,3.4-7.381,35.1,35.1,0,0,0,1.7-7.935,17.344,17.344,0,0,0-.517-6.284,10.458,10.458,0,0,0-2.632-4.511,12.219,12.219,0,0,0-4.92-2.867,11.258,11.258,0,0,0-3.522-.6,9.4,9.4,0,0,0-1.685.151,10.78,10.78,0,0,0-4.64,2.109,17.033,17.033,0,0,0-4,4.608,31.73,31.73,0,0,0-3.125,7.012A32.956,32.956,0,0,0,330,62.949h0a18.352,18.352,0,0,0,.52,6.259,11.276,11.276,0,0,0,2.51,4.626" fill="#fff"/>
    <path id="Path_2428" data-name="Path 2428" d="M148.113,91.943l-11.6-7.161,2.913,13.376Z" fill="#fff"/>
    <path id="Path_2429" data-name="Path 2429" d="M422.369,107.9l4.15-12.984-12.278,6.055Z" fill="#fff"/>
    <path id="Path_2430" data-name="Path 2430" d="M57.116,325.257,59.7,335.618l-13.51-2.209Z" fill="#fff"/>
    <path id="Path_2431" data-name="Path 2431" d="M68.043,169.163a6.528,6.528,0,0,1,1.355,2.7,9.138,9.138,0,0,1,.06,3.623,16.7,16.7,0,0,1-1.56,4.59l-.253.517-13.476-6.606a24.752,24.752,0,0,1,1.227-3.309,9.269,9.269,0,0,1,1.953-2.583,6.86,6.86,0,0,1,2.4-1.433,6.712,6.712,0,0,1,2.749-.31,8.549,8.549,0,0,1,3.016.881,7.742,7.742,0,0,1,2.533,1.93" fill="#fff"/>
    <path id="Path_2432" data-name="Path 2432" d="M251.154,335.96c-.64-.335-1.262-.7-1.886-1.055l-6.591,61.29,11.875-26.969Z" fill="#fff"/>
    <path id="Path_2433" data-name="Path 2433" d="M229.581,292.984a13.493,13.493,0,0,1,3.059-1.3,44.663,44.663,0,0,1-10.9-17.994l-61.212,30.668,64.5-6.708a12.2,12.2,0,0,1,4.561-4.666" fill="#fff"/>
    <path id="Path_2434" data-name="Path 2434" d="M232.811,320.347a8.791,8.791,0,0,1-1.621-3.565,12.819,12.819,0,0,1-6.344-6.01l-33.638,51.809,46.711-36.4a57.527,57.527,0,0,1-5.108-5.836" fill="#fff"/>
    <path id="Path_2435" data-name="Path 2435" d="M300.831,335.082c-.413.234-.818.481-1.237.7l-3.537,34.641L307.4,396.2Z" fill="#fff"/>
    <path id="Path_2436" data-name="Path 2436" d="M249.557,205.31a142.464,142.464,0,0,0,13.1-16.177l-18.3-43.843Z" fill="#fff"/>
    <path id="Path_2437" data-name="Path 2437" d="M221.363,248.983c.49-1.963,1.081-3.858,1.743-5.705l-64.26-8.8,61.4,32.383a49.057,49.057,0,0,1,1.094-17.793c.007-.027.013-.054.02-.081" fill="#fff"/>
    <path id="Path_2438" data-name="Path 2438" d="M330.232,223.273l30.317-46.138-35.731,28.109a40.248,40.248,0,0,1,5.414,18.029" fill="#fff"/>
    <path id="Path_2439" data-name="Path 2439" d="M302.141,175.374c.3.416.579.833.867,1.25l2.716-31.334-10.558,25.29c.134.38.281.763.406,1.14a8.824,8.824,0,0,1,6.569,3.654" fill="#fff"/>
    <path id="Path_2440" data-name="Path 2440" d="M227.107,234.321a104.426,104.426,0,0,1,12.514-17.78l-50.09-39.4Z" fill="#fff"/>
    <path id="Path_2441" data-name="Path 2441" d="M324.108,243.671a64.375,64.375,0,0,1-9.683,11.465c-6.13,6.072-10.455,12.686-12.182,18.631-1.859,6.4-.612,11.542,3.924,16.169a8.81,8.81,0,0,1,.772.9l7.959-.01h.077a12.122,12.122,0,0,1,10.869,6.9l63.711,6.627-67.093-33.615,68.772-36.269Z" fill="#fff"/>
    <path id="Path_2442" data-name="Path 2442" d="M325.538,311.241a12.233,12.233,0,0,1-5.986,5.319,8.807,8.807,0,0,1-1.608,3.551,56.259,56.259,0,0,1-5.539,6.262l46.466,36.207Z" fill="#fff"/>
    <path id="Path_2443" data-name="Path 2443" d="M232.074,244.507a50.912,50.912,0,0,0-2.147,6.612c-5.037,21.037,5.828,35.3,23.391,45.141-23.9-27.355,2.308-55.485,21.251-78.6q.981-1.2,1.931-2.372c2.582-3.2,4.983-6.293,7.04-9.268,4.224-7.749,6.031-14.384,5.682-21.2-.464-9.073-4.746-18.477-12.274-31.277,5.11,18.957-.94,32.739-10.3,45.157-4.829,6.41-10.537,12.457-16.05,18.663q-2.045,2.3-4.036,4.642c-5.482,6.474-10.475,13.252-13.82,20.9q-.348.795-.672,1.6" fill="#fff"/>
    <path id="Path_2444" data-name="Path 2444" d="M299.786,325.364a46.849,46.849,0,0,0,5.581-4.474,47.862,47.862,0,0,0,5.539-6.106q-35.537.037-71.071.219a48.337,48.337,0,0,0,5.118,5.7,46.185,46.185,0,0,0,14.471,9.367l2.329,22.8,6.2,60.706,14.826-.022,6.074-59.484,2.463-24.118a47.433,47.433,0,0,0,8.469-4.588" fill="#fff"/>
    <path id="Path_2445" data-name="Path 2445" d="M276.565,296.173c-20.653-23.191,3.685-49.254,19.42-65.937a32.723,32.723,0,0,0,4.862-6.133c5.678-9.294,5.7-20.507.812-31.9a61.814,61.814,0,0,0-6.685-11.67C302.147,203.8,287,216.5,271.828,233.88c-15.867,15.962-27.8,43.344,4.737,62.293" fill="#fff"/>
    <path id="Path_2446" data-name="Path 2446" d="M312.146,220.385c-10.8,23.74-55.962,49.194-12.281,75.73-15.053-15.353-4.009-35.036,8.406-47.307,13.084-12.493,16.616-24.04,9.5-38.023a59.473,59.473,0,0,0-5.952-9.243,28.634,28.634,0,0,1,1.776,12.529,25.323,25.323,0,0,1-1.453,6.314" fill="#fff"/>
    <path id="Path_2447" data-name="Path 2447" d="M315.7,308.556c4.123-.974,3.586-8.9-.72-8.9h-.069q-37.038.033-74.078.244l.05-.077-.476.078c-.745-.008-1.59-.055-2.447-.055-2.8,0-5.737.509-5.81,4.591a4.391,4.391,0,0,0,2.841,4.345q10.64.06,21.294.057c19.8,0,39.633-.133,59.415-.281" fill="#fff"/>
    <path id="Path_2448" data-name="Path 2448" d="M289.859,422.113c0-2.553-1.7-4.606-3.788-4.609H264.009c-2.091,0-3.788,2.056-3.788,4.609,0,2.516,1.7,4.592,3.788,4.589h22.062c2.091,0,3.788-2.073,3.788-4.589" fill="#fff"/>
    <path id="Path_2449" data-name="Path 2449" d="M267.051,437.573a7.989,7.989,0,1,0,7.988-7.989,7.988,7.988,0,0,0-7.988,7.989" fill="#fff"/>
    <path id="Path_2450" data-name="Path 2450" d="M385.9,148.1c11.758,21.42,8.052,28.638,20.676,49.673.433.721-.065,1.432-.758.53-14.715-19.124-18.34-21.088-28.44-26.657-2.313-1.276-12.987-9.739-1.375,4.927,5.526,6.98,10.864,12.767,19.012,17.122,4.982,2.664,10.283,6.352,12.2,12.139.074.192,1.12,1.059,1.281.518C421.988,160.988,379.427,139.8,385.9,148.1" fill="#fff"/>
    <path id="Path_2451" data-name="Path 2451" d="M417.3,236.618c-9.195-24.367-12.31-27.576-20.959-36.621-1.981-2.072-10.325-14.249-2.937,4.546,3.517,8.946,7.208,16.615,14.228,23.772,4.292,4.377,8.6,9.9,8.769,16.422.016.22.822,1.452,1.154.956,27.89-41.577-9.264-77.368-5.179-66.769,5.448,25.708-1.032,30.158,5.867,57.409.222.877-.509,1.434-.943.285" fill="#fff"/>
    <path id="Path_2452" data-name="Path 2452" d="M419.393,280.215c-3.3-29.568-5.889-34.245-13.036-47.374-1.637-3.006-7.526-19.325-4.646,3.6,1.371,10.913,3.312,20.547,9.166,31.007,3.58,6.4,6.838,14.012,5.133,20.985-.045.239.507,1.875,1.028,1.487,43.655-32.529,12.062-85.684,13.593-72.788-1.327,29.446-10.1,31.858-10.089,63.165,0,1.012-.993,1.308-1.149-.086" fill="#fff"/>
    <path id="Path_2453" data-name="Path 2453" d="M441.958,258.189c-9.242,30.718-21.026,31.752-31.064,65.048-.3.984-1.479.823-1.1-.582,8.514-31.762,3.632-38.272-3.1-53.151-1.533-3.386-3.013-21.92-6.791,1.835-1.8,11.306,2.49,22.3,5.219,35.1,1.668,7.83,1.127,17.27-2.552,23.376-.114.215-.043,2.06.579,1.9,52.177-13.023,41.026-86.851,38.815-73.529" fill="#fff"/>
    <path id="Path_2454" data-name="Path 2454" d="M351.394,132.816c-2.179-.907-2.7.668-1.217,1.883,6.2,5.5,10.163,13.66,16.02,19.513,8.569,8.853,18.684,16.819,28.313,23.828-4.938-20.272-25.116-36.7-43.116-45.224" fill="#fff"/>
    <path id="Path_2455" data-name="Path 2455" d="M440.906,308.021C429.5,326.8,400.522,338.372,383.983,363.3c-.625.942-1.874.357-.957-.93,20.728-29.091,14.885-37.333,16.863-54.309.854-7.327,5.564-20.817-7.34-.67-6.645,10.373-6.711,23.611-8.523,37.28-1.109,8.36-5.156,17.633-11.31,22.582-.2.179-.8,2.047-.086,2.087,60.207,3.425,75.526-73.951,68.276-61.32" fill="#fff"/>
    <path id="Path_2456" data-name="Path 2456" d="M408.724,379.23c1.225-.861,12.751-16.48,14.21-20.9.8-2.416-1.691-3.076-2.8-1.3-.273.394-.41.594-.694.953-11.987,15.166-30.128,10.507-46.594,17.154A125.412,125.412,0,0,0,305.9,439.671a27.847,27.847,0,0,0,8.205-1.589c17.891-43.049,64.263-27.568,94.623-58.852" fill="#fff"/>
    <path id="Path_2457" data-name="Path 2457" d="M141.586,206.35c.161.541,1.207-.327,1.28-.519,1.912-5.787,7.213-9.474,12.2-12.138,8.147-4.356,13.485-10.142,19.012-17.122,11.612-14.666.938-6.2-1.375-4.927-10.1,5.569-13.725,7.533-28.44,26.657-.694.9-1.191.191-.758-.53,12.624-21.035,8.918-28.253,20.676-49.673,6.475-8.294-36.086,12.89-22.591,58.252" fill="#fff"/>
    <path id="Path_2458" data-name="Path 2458" d="M132.524,245.693c.333.5,1.138-.736,1.155-.956.173-6.522,4.476-12.045,8.769-16.422,7.019-7.157,10.711-14.826,14.227-23.772,7.388-18.8-.956-6.618-2.936-4.547-8.65,9.045-11.764,12.255-20.96,36.622-.433,1.148-1.165.591-.943-.285,6.9-27.252.419-31.7,5.868-57.409,4.084-10.6-33.07,25.192-5.18,66.769" fill="#fff"/>
    <path id="Path_2459" data-name="Path 2459" d="M133.042,289.924c.521.388,1.073-1.247,1.027-1.487-1.7-6.973,1.554-14.587,5.134-20.984,5.853-10.461,7.794-20.1,9.165-31.008,2.88-22.928-3.009-6.61-4.645-3.6-7.148,13.128-9.735,17.806-13.036,47.373-.156,1.394-1.15,1.1-1.15.086.011-31.307-8.761-33.719-10.089-63.165,1.532-12.9-30.062,40.259,13.594,72.788" fill="#fff"/>
    <path id="Path_2460" data-name="Path 2460" d="M146.937,331.719c.622.155.693-1.689.579-1.9-3.679-6.107-4.22-15.546-2.551-23.376,2.728-12.8,7.016-23.793,5.218-35.1-3.778-23.755-5.258-5.221-6.791-1.835-6.736,14.88-11.617,21.389-3.1,53.152.377,1.4-.8,1.565-1.1.582-10.037-33.3-21.822-34.33-31.064-65.048-2.211-13.323-13.362,60.506,38.815,73.529" fill="#fff"/>
    <path id="Path_2461" data-name="Path 2461" d="M198.686,132.816c-18,8.523-38.178,24.952-43.116,45.224,9.629-7.009,19.744-14.975,28.313-23.828,5.857-5.853,9.815-14.014,16.02-19.513,1.478-1.215.962-2.79-1.217-1.883" fill="#fff"/>
    <path id="Path_2462" data-name="Path 2462" d="M177.449,369.342c.718-.041.115-1.908-.085-2.088-6.154-4.949-10.2-14.221-11.31-22.581-1.813-13.67-1.879-26.908-8.523-37.281-12.9-20.146-8.194-6.657-7.34.67,1.978,16.976-3.865,25.218,16.862,54.309.917,1.288-.331,1.872-.956.931-16.539-24.93-45.517-36.5-56.923-55.28-7.251-12.631,8.068,64.745,68.275,61.32" fill="#fff"/>
    <path id="Path_2463" data-name="Path 2463" d="M141.356,379.23c30.36,31.284,76.732,15.8,94.623,58.852a27.841,27.841,0,0,0,8.2,1.589,125.41,125.41,0,0,0-66.945-64.528c-16.466-6.647-34.607-1.988-46.594-17.154-.284-.359-.421-.559-.694-.953-1.113-1.778-3.6-1.118-2.8,1.3,1.458,4.416,12.985,20.035,14.21,20.9" fill="#fff"/>
    <path id="Path_2464" data-name="Path 2464" d="M57.116,325.257l-10.923,8.152,13.51,2.209Z" fill="#fff"/>
    <path id="Path_2465" data-name="Path 2465" d="M469.528,80.569A275.038,275.038,0,1,0,80.55,469.515,275.038,275.038,0,1,0,469.528,80.569M544.2,274.591H534.29q-.006-3.4-.1-6.788l9.906-.272q.1,3.523.1,7.06m-.39-14.1-9.9.526q-.181-3.4-.451-6.775l9.881-.787q.278,3.51.466,7.036M542.7,246.442l-9.862,1.044q-.357-3.384-.8-6.742l9.836-1.3q.459,3.492.829,7m-1.839-13.976-9.8,1.559q-.534-3.361-1.156-6.693l9.768-1.822q.642,3.467,1.193,6.956M538.294,218.6l-9.726,2.077q-.711-3.328-1.507-6.625l9.678-2.336q.824,3.429,1.555,6.884M535,204.871l-9.623,2.592q-.885-3.286-1.854-6.538l9.561-2.849q1,3.382,1.916,6.795M521.2,290.3a3.616,3.616,0,0,0,1.648.755,1.138,1.138,0,0,1,.861,1.112l-.01,1.078a1.137,1.137,0,0,1-1.07,1.125l-14.064.83a1.163,1.163,0,0,1-.85-.311,1.141,1.141,0,0,1-.354-.833l.009-.963a1.137,1.137,0,0,1,.825-1.083,21.567,21.567,0,0,0,5.133-2.13,13.1,13.1,0,0,0,3.389-2.816,10.473,10.473,0,0,0,1.912-3.436,13.556,13.556,0,0,0,.653-4.132,12.788,12.788,0,0,0-1.054-5.345,11.031,11.031,0,0,0-3.326-4.2,17.314,17.314,0,0,0-5.883-2.871,32.014,32.014,0,0,0-8.652-1.114,23.877,23.877,0,0,0-7.528.98,15.154,15.154,0,0,0-5.38,2.855,11.993,11.993,0,0,0-3.254,4.411,15.06,15.06,0,0,0-1.157,5.85,17.014,17.014,0,0,0,.306,3.524,9.993,9.993,0,0,0,1.164,3.014,14.651,14.651,0,0,0,2.4,3.029,33.932,33.932,0,0,0,4.051,3.345,1.136,1.136,0,0,1,.256,1.589l-.648.895a1.135,1.135,0,0,1-1.5.313,30.451,30.451,0,0,1-4.818-3.463,16.416,16.416,0,0,1-3.394-4.143,17.075,17.075,0,0,1-1.827-4.865,25.906,25.906,0,0,1-.517-5.608,21.307,21.307,0,0,1,1.878-8.88,18.075,18.075,0,0,1,4.919-6.443,21.172,21.172,0,0,1,7.08-3.749,27.154,27.154,0,0,1,8.371-1.212,28.657,28.657,0,0,1,6.028.694,25.264,25.264,0,0,1,5.5,1.912,22.556,22.556,0,0,1,4.7,3.065,18,18,0,0,1,3.7,4.333,21.17,21.17,0,0,1,2.341,5.419,22.5,22.5,0,0,1,.79,6.243,17.825,17.825,0,0,1-.529,4.367,24.213,24.213,0,0,1-1.069,3.2c-.383.894-.739,1.643-1.059,2.228a2.351,2.351,0,0,0-.322.774.878.878,0,0,0,.348.658m-5.966,28.862a2.292,2.292,0,0,0-.448-1.176,1.246,1.246,0,0,0-.279-.306,2.674,2.674,0,0,0-.575-.323,10.816,10.816,0,0,0-1.165-.42c-.5-.152-1.108-.3-1.815-.454l-10.383-2.2-3.451,16.252,10.383,2.205a17.317,17.317,0,0,0,3.043.434,2.073,2.073,0,0,0,1-.158,3.207,3.207,0,0,0,.9-.974,4.4,4.4,0,0,0,.612-1.486l.306-1.448a1.138,1.138,0,0,1,1.349-.877l1.051.224a1.137,1.137,0,0,1,.875,1.348l-3.705,17.449a1.136,1.136,0,0,1-1.348.876l-1.053-.223a1.136,1.136,0,0,1-.876-1.348l.308-1.452a4.8,4.8,0,0,0,.049-1.552,3,3,0,0,0-.44-1.311,1.631,1.631,0,0,0-.328-.385,2,2,0,0,0-.5-.271,8.211,8.211,0,0,0-1.068-.313c-.492-.114-1.135-.255-1.924-.422l-25.933-5.5c-.639-.138-1.187-.249-1.648-.338a11.289,11.289,0,0,0-1.135-.161,3.25,3.25,0,0,0-.7.009,1.784,1.784,0,0,0-.511.153,1.966,1.966,0,0,0-.923.858,5.291,5.291,0,0,0-.659,1.653l-.308,1.452a1.138,1.138,0,0,1-1.348.876l-1.109-.236a1.136,1.136,0,0,1-.876-1.348l3.7-17.45a1.129,1.129,0,0,1,1.347-.876l1.11.234a1.136,1.136,0,0,1,.878,1.348l-.309,1.454a3.219,3.219,0,0,0,.447,2.892,3.126,3.126,0,0,0,1.036.578,16.026,16.026,0,0,0,2.73.784l11.128,2.363,3.45-16.251L485,310.971a18.534,18.534,0,0,0-2.917-.444,2.367,2.367,0,0,0-1.1.13,2.565,2.565,0,0,0-.9.928,4.841,4.841,0,0,0-.669,1.62l-.309,1.45a1.137,1.137,0,0,1-1.347.876l-1.11-.236a1.137,1.137,0,0,1-.876-1.348l3.7-17.449a1.135,1.135,0,0,1,1.348-.876l1.112.236a1.138,1.138,0,0,1,.876,1.348l-.308,1.451a3.346,3.346,0,0,0,.472,2.923c.06.067.666.62,3.751,1.275l25.933,5.506q1.018.216,1.741.327a9.736,9.736,0,0,0,1.167.116,3.824,3.824,0,0,0,.72-.043,2.45,2.45,0,0,0,.523-.162h0a1.855,1.855,0,0,0,.255-.23,4.326,4.326,0,0,0,.486-.63,5.883,5.883,0,0,0,.436-.8,3.5,3.5,0,0,0,.238-.692v0l.309-1.453a1.134,1.134,0,0,1,.493-.717,1.121,1.121,0,0,1,.856-.158l1.054.225a1.135,1.135,0,0,1,.874,1.347l-3.7,17.449a1.137,1.137,0,0,1-1.348.876l-1.05-.223a1.137,1.137,0,0,1-.876-1.347l.308-1.453a5.411,5.411,0,0,0,.1-1.627M452,443.954a4.5,4.5,0,0,0-.632-.931,19.305,19.305,0,0,0-1.9-1.943l-6.915-6.344-19.872-3.274q-1.743-.27-3-.453a6.736,6.736,0,0,0-1.977-.015,9.883,9.883,0,0,0-1.843.551,4.091,4.091,0,0,0-1.55,1.061,1.134,1.134,0,0,1-.788.369,1.185,1.185,0,0,1-.818-.3l-.794-.728a1.134,1.134,0,0,1-.069-1.606l11.9-12.974a1.137,1.137,0,0,1,1.6-.07l.793.726a1.138,1.138,0,0,1,.069,1.607l-.611.665a6.16,6.16,0,0,0-.542.722,3.144,3.144,0,0,0-.4.88,2.064,2.064,0,0,0-.064.868.863.863,0,0,0,.334.544,3.232,3.232,0,0,0,1,.439,20.65,20.65,0,0,0,2.617.623l13.827,2.243-3.355-12.86a13.828,13.828,0,0,0-1.19-3.283,1.394,1.394,0,0,0-1.2-.751c-.041,0-.083-.011-.124-.019a1.5,1.5,0,0,0-.4-.021,1.42,1.42,0,0,0-.442.12,3.65,3.65,0,0,0-.689.421,6.855,6.855,0,0,0-.913.851,1.133,1.133,0,0,1-.788.369,1.177,1.177,0,0,1-.818-.3l-.794-.728a1.137,1.137,0,0,1-.069-1.606l9.659-10.53a1.138,1.138,0,0,1,1.605-.07l.793.727a1.136,1.136,0,0,1,.07,1.606l-.511.557a3.21,3.21,0,0,0-.4.6,6.25,6.25,0,0,0-.442,1.066,8.154,8.154,0,0,0-.309,1.414,6.6,6.6,0,0,0-.01,1.573,13.966,13.966,0,0,0,.321,2.063q.278,1.241.732,2.9l4.663,17.547,7.306,6.7c2.378,2.181,3.209,2.264,3.32,2.264.029.015.057,0,.085,0a3.623,3.623,0,0,0,2.5-1.47h0l.886-.964a1.137,1.137,0,0,1,1.605-.067l.837.768a1.135,1.135,0,0,1,.068,1.605l-11.881,12.953a1.135,1.135,0,0,1-1.605.07l-.837-.767a1.135,1.135,0,0,1-.069-1.606l.965-1.052a4.43,4.43,0,0,0,.958-1.465,2.606,2.606,0,0,0,.095-1.278M412.2,476.239a19.726,19.726,0,0,0-1.445-2.3l-17.423-24.672-3.066,2.164q-.964.681-1.619,1.21a7.353,7.353,0,0,0-.947.9,3.541,3.541,0,0,0-.493.721,4.015,4.015,0,0,0-.278.791c-.5,1.482-.115,3.253,1.124,5.36a1.136,1.136,0,0,1-.323,1.5l-1.118.79a1.136,1.136,0,0,1-1.614-.317l-5.047-7.906a1.136,1.136,0,0,1,.3-1.539L408.212,433.2a1.136,1.136,0,0,1,1.559.238l5.69,7.451a1.137,1.137,0,0,1-.247,1.618l-1.069.757a1.142,1.142,0,0,1-1.512-.179,17.209,17.209,0,0,0-1.25-1.3,6.794,6.794,0,0,0-.975-.757,4.606,4.606,0,0,0-.812-.409,4.281,4.281,0,0,0-.763-.205,5.422,5.422,0,0,0-2.28.045,8.176,8.176,0,0,0-2.64,1.338l-3.8,2.685,17.424,24.673a16.76,16.76,0,0,0,1.832,2.249,2.731,2.731,0,0,0,.981.722,3.405,3.405,0,0,0,2.645-.84l1.164-.823a1.147,1.147,0,0,1,.849-.192,1.133,1.133,0,0,1,.735.465l.654.927a1.136,1.136,0,0,1-.272,1.583L411.743,483.4a1.136,1.136,0,0,1-1.584-.271l-.655-.927a1.137,1.137,0,0,1,.273-1.585l1.212-.857a4.521,4.521,0,0,0,1.263-1.243,2.4,2.4,0,0,0,.351-1.279,4.214,4.214,0,0,0-.4-1M109.91,405.124a5.646,5.646,0,0,0-1.016-1.4l-.64-.676a1.139,1.139,0,0,1,.046-1.607l.783-.739a1.134,1.134,0,0,1,1.606.047l11.491,12.163a1.136,1.136,0,0,1-.046,1.607l-.789.744a.982.982,0,0,1-.814.309,1.133,1.133,0,0,1-.793-.355l-1.057-1.122a4,4,0,0,0-.632-.559,1.964,1.964,0,0,0-.484-.244,1.21,1.21,0,0,0-.407-.056,2.988,2.988,0,0,0-1.925.692,15.366,15.366,0,0,0-2.061,1.691l-13.128,12.4q-.966.912-2.062,2.026a18.932,18.932,0,0,0-1.937,2.319,13.652,13.652,0,0,0-1.454,2.6,7.271,7.271,0,0,0-.569,2.721,7.539,7.539,0,0,0,.608,2.974,11.1,11.1,0,0,0,2.277,3.3A13.063,13.063,0,0,0,99.3,446a14.037,14.037,0,0,0,2.4,1.26,12.53,12.53,0,0,0,2.154.66,11.794,11.794,0,0,0,1.686.234,5.852,5.852,0,0,0,2.722-.554,16.809,16.809,0,0,0,2.871-1.636,24.334,24.334,0,0,0,2.472-1.991q1.146-1.064,1.761-1.645l12.17-11.5c2.375-2.244,2.591-3.116,2.61-3.268a3.469,3.469,0,0,0-1.158-2.546l-1.059-1.121a1.138,1.138,0,0,1,.046-1.606l.789-.744a1.134,1.134,0,0,1,1.606.046l9.913,10.492a1.139,1.139,0,0,1-.047,1.608l-.783.738a1.139,1.139,0,0,1-1.607-.047l-1.078-1.142a3.053,3.053,0,0,0-1.339-.883,3.617,3.617,0,0,0-1.682-.028,1.024,1.024,0,0,1-.109.016c-.076.011-.754.164-2.876,2.166l-12.122,11.451c-1.047.989-2.091,1.906-3.1,2.729a23.621,23.621,0,0,1-3.144,2.172,16.34,16.34,0,0,1-3.234,1.425,11.5,11.5,0,0,1-3.413.526,19.22,19.22,0,0,1-3.276-.319,12.637,12.637,0,0,1-3.12-1.041,17.108,17.108,0,0,1-3.025-1.906,27.919,27.919,0,0,1-3.109-2.869,26.253,26.253,0,0,1-3.535-4.566,17.206,17.206,0,0,1-1.85-4.257,12.082,12.082,0,0,1,.334-7.494,15.347,15.347,0,0,1,1.57-3.077,24.5,24.5,0,0,1,2-2.62c.694-.792,1.411-1.539,2.132-2.219l13.645-12.891a16.165,16.165,0,0,0,1.962-2.146,2.641,2.641,0,0,0,.581-1.255,1.682,1.682,0,0,0-.147-1.029m-27.8-130.086C82.114,168.482,168.495,82.1,275.042,82.1S467.96,168.482,467.96,275.038,381.578,467.984,275.042,467.984,82.114,381.6,82.114,275.038m-53.9-17.656a1.135,1.135,0,0,1-.645-1.042l.187-11.643a1.145,1.145,0,0,1,.346-.8,1.184,1.184,0,0,1,.81-.32l1.076.018a1.137,1.137,0,0,1,1.118,1.156l-.024,1.425A3.421,3.421,0,0,0,32.071,249a4.037,4.037,0,0,0,1.173.326,19.12,19.12,0,0,0,2.671.19l26.74.432c3.231.077,3.911-.416,4.019-.511a3.4,3.4,0,0,0,.921-2.665l.023-1.426a1.137,1.137,0,0,1,.346-.8,1.263,1.263,0,0,1,.809-.32l1.136.019a1.139,1.139,0,0,1,1.118,1.155l-.286,17.691a1.145,1.145,0,0,1-.346.8,1.237,1.237,0,0,1-.81.32l-1.135-.019a1.138,1.138,0,0,1-1.118-1.155l.022-1.425a4.778,4.778,0,0,0-.255-1.844,2.226,2.226,0,0,0-.806-.991,2.858,2.858,0,0,0-1.075-.328,17.969,17.969,0,0,0-2.7-.2l-22.169-.358L69.934,272.1a1.139,1.139,0,0,1,.645,1.043l-.017,1.021a1.137,1.137,0,0,1-.679,1.021L39.866,288.4l22.161.358c3.228.082,3.911-.417,4.019-.512a3.262,3.262,0,0,0,.921-2.666l.023-1.426a1.138,1.138,0,0,1,1.137-1.118h.018l1.134.018a1.135,1.135,0,0,1,.8.346,1.147,1.147,0,0,1,.32.808l-.228,14.142a1.138,1.138,0,0,1-1.137,1.119h-.018l-1.135-.017a1.139,1.139,0,0,1-1.119-1.156l.023-1.426a4.409,4.409,0,0,0-.257-1.736,2.574,2.574,0,0,0-.776-1.014,4.372,4.372,0,0,0-1.09-.278,19.407,19.407,0,0,0-2.712-.192h0l-26.741-.433a13.637,13.637,0,0,0-2.871.176,1.763,1.763,0,0,0-1.12.614,3.059,3.059,0,0,0-.374.545,3.659,3.659,0,0,0-.278.689,6.871,6.871,0,0,0-.216,1.022,11.64,11.64,0,0,0-.1,1.441,1.176,1.176,0,0,1-1.154,1.119l-1.077-.016a1.139,1.139,0,0,1-1.119-1.155l.187-11.586a1.142,1.142,0,0,1,.673-1.02l30.07-13.461ZM78.883,131a4.273,4.273,0,0,0,.748.906,16.759,16.759,0,0,0,2.182,1.763L103.5,148.93a19.938,19.938,0,0,0,2.457,1.533,3.519,3.519,0,0,0,1.173.4c-.01-.006.1-.025.3-.1a3.691,3.691,0,0,0,.681-.368,6.409,6.409,0,0,0,.779-.608,4,4,0,0,0,.58-.644l.852-1.211a1.137,1.137,0,0,1,1.584-.275l.928.653a1.138,1.138,0,0,1,.275,1.584L102.89,164.411a1.136,1.136,0,0,1-1.583.275l-.927-.652a1.136,1.136,0,0,1-.276-1.583l.854-1.214a4.544,4.544,0,0,0,.761-1.563,2.594,2.594,0,0,0-.045-1.3c-.021-.072-.287-.783-2.951-2.655L77.04,140.46q-.846-.6-1.454-1.006a10.667,10.667,0,0,0-.985-.6,3.427,3.427,0,0,0-.63-.263.72.72,0,0,0-.289-.031,2.764,2.764,0,0,0-1.367.489,4.542,4.542,0,0,0-1.225,1.171l-.854,1.214a1.133,1.133,0,0,1-1.582.276l-.881-.619a1.137,1.137,0,0,1-.276-1.584l10.214-14.519a1.137,1.137,0,0,1,1.583-.275l.881.619a1.137,1.137,0,0,1,.276,1.584l-.855,1.214A3.34,3.34,0,0,0,78.883,131m24.295-35.235a1.138,1.138,0,0,1,.116-1.4l.735-.788a1.136,1.136,0,0,1,1.547-.107l10.936,8.884a1.137,1.137,0,0,1,.115,1.657l-.656.7a1.133,1.133,0,0,1-1.337.242,21.7,21.7,0,0,0-5.228-1.894,13.124,13.124,0,0,0-4.4-.21,10.5,10.5,0,0,0-3.729,1.244A13.6,13.6,0,0,0,98,106.7a12.834,12.834,0,0,0-2.83,4.656,11.049,11.049,0,0,0-.381,5.345,17.353,17.353,0,0,0,2.4,6.09,32.161,32.161,0,0,0,5.63,6.663,24.627,24.627,0,0,0,6.217,4.359,15.19,15.19,0,0,0,5.9,1.526,12.009,12.009,0,0,0,5.378-1.058,15.072,15.072,0,0,0,4.8-3.536,16.963,16.963,0,0,0,2.15-2.8,9.979,9.979,0,0,0,1.178-3.011,14.7,14.7,0,0,0,.273-3.859,34.23,34.23,0,0,0-.731-5.2,1.135,1.135,0,0,1,.881-1.345l1.084-.224a1.148,1.148,0,0,1,1.317.78,30.455,30.455,0,0,1,1.217,5.808,16.41,16.41,0,0,1-.295,5.35,17.014,17.014,0,0,1-1.937,4.821,25.935,25.935,0,0,1-3.4,4.486,21.331,21.331,0,0,1-7.38,5.284,18.368,18.368,0,0,1-7.032,1.458c-.317,0-.633-.01-.948-.028a21.166,21.166,0,0,1-7.754-2.011,27.127,27.127,0,0,1-6.993-4.76,28.506,28.506,0,0,1-3.98-4.58A25.073,25.073,0,0,1,90,125.79a22.5,22.5,0,0,1-1.4-5.436,18.047,18.047,0,0,1,.2-5.692,21.284,21.284,0,0,1,1.931-5.578,22.478,22.478,0,0,1,3.633-5.138A17.818,17.818,0,0,1,97.7,101.08a24.051,24.051,0,0,1,2.951-1.638c.9-.408,1.647-.712,2.284-.929a2.429,2.429,0,0,0,.762-.353.871.871,0,0,0,.186-.716,3.8,3.8,0,0,0-.705-1.675M68.833,159.33a11.909,11.909,0,0,1,3.278,2.334,10.2,10.2,0,0,1,2.171,3.3,12.534,12.534,0,0,1,.869,4.128,16.515,16.515,0,0,1-.183,3.244l12.556-1.819a30.354,30.354,0,0,0,3.849-.792A11.2,11.2,0,0,0,94,168.63a8.6,8.6,0,0,0,1.918-1.551,15.756,15.756,0,0,0,1.72-2.31,1.134,1.134,0,0,1,1.463-.42l1.019.5a1.137,1.137,0,0,1,.522,1.521l-4.793,9.778a1.134,1.134,0,0,1-.849.624l-22.457,3.445c-.106.257-.2.488-.29.691-.15.352-.291.673-.422.959q-.147.328-.308.629l9.551,4.682c3.031,1.486,3.767,1.256,3.8,1.242a1.171,1.171,0,0,1,.135-.039,3.109,3.109,0,0,0,1.983-1.9l.7-1.437a1.14,1.14,0,0,1,1.52-.52l1.019.5a1.135,1.135,0,0,1,.522,1.521L82.9,202.56a1.137,1.137,0,0,1-1.022.637,1.126,1.126,0,0,1-.5-.117l-1.018-.5a1.137,1.137,0,0,1-.522-1.521l.679-1.386c.9-1.833.37-2.667.2-2.942-.063-.108-.475-.723-3.295-2.109L53.621,182.958c-2.612-1.28-3.6-1.365-3.907-1.334a3.158,3.158,0,0,0-1.041.645,4.48,4.48,0,0,0-.943,1.334l-.677,1.383a1.137,1.137,0,0,1-1.521.522l-.966-.473a1.138,1.138,0,0,1-.521-1.521L50.524,170.3c.943-1.925,1.858-3.612,2.721-5.013a20.25,20.25,0,0,1,2.536-3.406,13.261,13.261,0,0,1,2.78-2.146,11.178,11.178,0,0,1,3.229-1.26,11.031,11.031,0,0,1,3.486-.188,10.569,10.569,0,0,1,3.557,1.047M49.325,198.883a1.139,1.139,0,0,1,.869,1.4l-.306,1.155a1.136,1.136,0,0,1-1.1.846q-.945,0-1.842-.065a8.7,8.7,0,0,0-1.449.014,4.4,4.4,0,0,0-1.2.291,3.046,3.046,0,0,0-1,.7A5.62,5.62,0,0,0,42.3,204.7a15.112,15.112,0,0,0-.941,2.667l-2.617,9.87,13.472,3.574,2.02-7.622a11.677,11.677,0,0,0,.481-2.956,2.517,2.517,0,0,0-.359-1.4,3.177,3.177,0,0,0-1.145-.971c-.627-.336-1.426-.713-2.373-1.121a1.139,1.139,0,0,1-.65-1.335l.291-1.1a1.136,1.136,0,0,1,.527-.693,1.157,1.157,0,0,1,.863-.116l13.784,3.657a1.138,1.138,0,0,1,.806,1.392l-.291,1.1a1.125,1.125,0,0,1-1.227.836c-1.045-.119-1.957-.193-2.715-.223a3.116,3.116,0,0,0-1.511.269,2.72,2.72,0,0,0-1.041,1.066,11.1,11.1,0,0,0-1.048,2.765L56.6,221.98l13.706,3.633a2.286,2.286,0,0,0,.967.076.826.826,0,0,0,.5-.342,4.145,4.145,0,0,0,.664-1.575l1.773-6.694a21.031,21.031,0,0,0,.722-3.886,6.222,6.222,0,0,0-.359-2.622A8.748,8.748,0,0,0,73,208.012c-.8-.94-1.892-2.087-3.249-3.407a1.137,1.137,0,0,1-.305-1.107l.323-1.208a1.137,1.137,0,0,1,.7-.772,1.151,1.151,0,0,1,1.034.121l9.094,6.114a1.142,1.142,0,0,1,.465,1.236L72.9,239.762a1.139,1.139,0,0,1-1.1.845,1.232,1.232,0,0,1-.293-.037l-1.1-.292a1.138,1.138,0,0,1-.807-1.389l.365-1.379c.038-.141.071-.321.107-.545a5.743,5.743,0,0,0,.054-.725,5.154,5.154,0,0,0-.05-.789,1.9,1.9,0,0,0-.147-.545,2.3,2.3,0,0,0-.277-.4,1.7,1.7,0,0,0-.462-.337,8.152,8.152,0,0,0-1.179-.507c-.524-.185-1.214-.392-2.049-.615l-25.774-6.837c-3.2-.848-3.926-.59-4-.558a2.42,2.42,0,0,0-.857.8,5.355,5.355,0,0,0-.721,1.678l-.363,1.377a1.141,1.141,0,0,1-.527.692,1.123,1.123,0,0,1-.863.115l-1.044-.278a1.136,1.136,0,0,1-.807-1.389l8.163-30.771a1.147,1.147,0,0,1,1.329-.822ZM33.979,333.3,63.624,311.21a31.515,31.515,0,0,0,2.834-2.323,6.918,6.918,0,0,0,1.34-1.647,3.111,3.111,0,0,0,.389-1.371,9.607,9.607,0,0,0-.177-1.978,1.136,1.136,0,0,1,.844-1.3l1.1-.275a1.135,1.135,0,0,1,1.378.827l3.9,15.671a1.137,1.137,0,0,1-.827,1.378l-1.1.275a1.134,1.134,0,0,1-1.375-.813,4.791,4.791,0,0,0-1.017-2.257,1.073,1.073,0,0,0-.865-.361,3.5,3.5,0,0,0-1.5.583c-.7.439-1.394.92-2.076,1.43L61.946,322.4l3.486,13.981,6.289,1.008a20.232,20.232,0,0,0,2.435.243A1.813,1.813,0,0,0,75.2,337.4a1.43,1.43,0,0,0,.384-.89,9.855,9.855,0,0,0-.173-2.926,1.137,1.137,0,0,1,.846-1.288l1.1-.275a1.146,1.146,0,0,1,.86.128,1.132,1.132,0,0,1,.517.7l3.132,12.566a1.136,1.136,0,0,1-.826,1.378l-1.1.275a1.214,1.214,0,0,1-.278.034,1.138,1.138,0,0,1-1.081-.789,4.267,4.267,0,0,0-2.266-2.729,9.729,9.729,0,0,0-2.182-.781c-.916-.222-1.971-.431-3.134-.621l-36.266-5.8a1.138,1.138,0,0,1-.922-.849l-.26-1.046a1.138,1.138,0,0,1,.424-1.185m42.495,38.149a9.1,9.1,0,1,1-9.1,9.1,9.1,9.1,0,0,1,9.1-9.1M379.364,54.323a2.605,2.605,0,0,0-.548-1.035,4.648,4.648,0,0,0-1.335-1.029l-1.3-.713A1.138,1.138,0,0,1,375.731,50l.522-.949A1.135,1.135,0,0,1,377.8,48.6l15.479,8.5a37.132,37.132,0,0,1,5.441,3.56,23.233,23.233,0,0,1,3.589,3.52,12.433,12.433,0,0,1,2.023,3.507,10.8,10.8,0,0,1,.657,3.31,9.607,9.607,0,0,1-.394,3.042,13.622,13.622,0,0,1-1.068,2.57,10.371,10.371,0,0,1-2.026,2.6,9.691,9.691,0,0,1-2.8,1.811,10.968,10.968,0,0,1-3.409.816q-.311.024-.633.033a13.1,13.1,0,0,1,.893,1.2,9.633,9.633,0,0,1,1.525,3.721,8.4,8.4,0,0,1-.209,3.664A16.159,16.159,0,0,1,395.48,93.8a10.517,10.517,0,0,1-1.457,2.027A12.636,12.636,0,0,1,392.1,97.54a13.056,13.056,0,0,1-2.311,1.33,11.753,11.753,0,0,1-2.622.818,11.277,11.277,0,0,1-2.038.183c-.261,0-.525-.009-.788-.026a15.228,15.228,0,0,1-3.106-.565,27.317,27.317,0,0,1-3.549-1.3c-1.256-.554-2.668-1.26-4.2-2.1l-16.635-9.134a1.135,1.135,0,0,1-.45-1.542l.549-1a1.137,1.137,0,0,1,1.544-.449l1.3.715a3.061,3.061,0,0,0,2.979.3,3.445,3.445,0,0,0,.832-.866,18.469,18.469,0,0,0,1.445-2.3l12.831-23.371c1.569-2.859,1.506-3.758,1.477-3.909m82.158,62.32a17.107,17.107,0,0,0-1.224-1.864,1.136,1.136,0,0,1,.229-1.588l.908-.681a1.162,1.162,0,0,1,.844-.215,1.127,1.127,0,0,1,.748.444l10.524,14.088a1.136,1.136,0,0,1-.231,1.592l-.917.684a1.137,1.137,0,0,1-1.59-.233,16.445,16.445,0,0,0-1.442-1.7,3.178,3.178,0,0,0-1.211-.8,2.24,2.24,0,0,0-1.314,0,6.447,6.447,0,0,0-2.091,1.138l-21.83,16.313a9.415,9.415,0,0,0-1.833,1.683,2.111,2.111,0,0,0-.477,1.056,1.918,1.918,0,0,0,.262,1.036,14.257,14.257,0,0,0,1.137,1.743l2.423,3.243c.7.939,1.339,1.751,1.892,2.415a16.453,16.453,0,0,0,1.476,1.566,5.764,5.764,0,0,0,1.207.872,4.341,4.341,0,0,0,1.229.412,15.927,15.927,0,0,0,1.76.279,9.893,9.893,0,0,0,1.611.017,15.111,15.111,0,0,0,1.885-.258c.708-.14,1.532-.329,2.466-.566a1.136,1.136,0,0,1,1.292.585l.469.919a1.135,1.135,0,0,1-.642,1.591L448.366,164.1a1.107,1.107,0,0,1-.37.063,1.142,1.142,0,0,1-.911-.456l-18.727-25.065a1.134,1.134,0,0,1,.231-1.591l.909-.678a1.135,1.135,0,0,1,1.589.229,16.966,16.966,0,0,0,1.441,1.7,3.169,3.169,0,0,0,1.213.81,2.227,2.227,0,0,0,1.3.011A6.183,6.183,0,0,0,437.109,138l22.824-17.052a6.363,6.363,0,0,0,1.662-1.664,2.231,2.231,0,0,0,.359-1.253,3.207,3.207,0,0,0-.432-1.391m37.3,63.563q-.424-1.1-.781-1.864a7.131,7.131,0,0,0-.638-1.138,3.458,3.458,0,0,0-.577-.65,3.972,3.972,0,0,0-.7-.467c-1.312-.846-3.125-.9-5.472-.212a1.136,1.136,0,0,1-1.38-.681l-.494-1.275a1.136,1.136,0,0,1,.7-1.488l8.9-2.974a1.134,1.134,0,0,1,1.42.667l12.349,31.918a1.138,1.138,0,0,1-.611,1.455l-8.613,3.708a1.137,1.137,0,0,1-1.509-.636l-.472-1.222a1.135,1.135,0,0,1,.542-1.42,16.917,16.917,0,0,0,1.564-.9,6.8,6.8,0,0,0,.971-.758,4.624,4.624,0,0,0,.6-.69,4.361,4.361,0,0,0,.387-.694,5.3,5.3,0,0,0,.511-2.223,8.194,8.194,0,0,0-.657-2.882l-1.68-4.342L475,202.341a16.663,16.663,0,0,0-2.625,1.23,2.852,2.852,0,0,0-.936.77,3.4,3.4,0,0,0,.168,2.773l.513,1.333a1.136,1.136,0,0,1-.648,1.469l-1.058.41a1.137,1.137,0,0,1-1.471-.65l-6.354-16.419a1.136,1.136,0,0,1,.65-1.47l1.06-.41a1.136,1.136,0,0,1,1.47.649l.534,1.384a4.549,4.549,0,0,0,.9,1.53,2.4,2.4,0,0,0,1.154.649h.058a4.664,4.664,0,0,0,1-.145,19.346,19.346,0,0,0,2.587-.84l28.171-10.9Zm13.864,35.355-.254-1.4a1.136,1.136,0,0,1,.915-1.321l1.06-.192a1.136,1.136,0,0,1,1.32.915l5.693,31.323a1.134,1.134,0,0,1-.854,1.307l-8.758,2.1a1.124,1.124,0,0,1-.885-.153,1.139,1.139,0,0,1-.5-.749l-.213-1.174a1.134,1.134,0,0,1,.635-1.231q.858-.4,1.7-.726a8.638,8.638,0,0,0,1.307-.629,4.374,4.374,0,0,0,.963-.772,3.052,3.052,0,0,0,.608-1.053,5.576,5.576,0,0,0,.271-1.766,15.056,15.056,0,0,0-.282-2.813l-1.828-10.048-13.712,2.493,1.41,7.759a11.867,11.867,0,0,0,.821,2.882,2.545,2.545,0,0,0,.924,1.114,3.162,3.162,0,0,0,1.448.392c.716.036,1.6.038,2.626.008a1.126,1.126,0,0,1,1.154.931l.2,1.116a1.136,1.136,0,0,1-.915,1.322l-14.03,2.551a1.136,1.136,0,0,1-1.321-.917l-.2-1.116a1.133,1.133,0,0,1,.755-1.278c.992-.335,1.849-.655,2.547-.951a3.153,3.153,0,0,0,1.259-.889,2.74,2.74,0,0,0,.488-1.406,11.087,11.087,0,0,0-.227-2.947l-1.41-7.759-13.952,2.535a2.3,2.3,0,0,0-.9.342.826.826,0,0,0-.313.523,4.185,4.185,0,0,0,.069,1.71l1.239,6.815a21.549,21.549,0,0,0,1,3.826,6.28,6.28,0,0,0,1.439,2.218,8.759,8.759,0,0,0,2.516,1.643c1.131.516,2.608,1.088,4.388,1.705a1.132,1.132,0,0,1,.747.871l.223,1.232a1.136,1.136,0,0,1-1.118,1.339,1.016,1.016,0,0,1-.173-.014L479.73,253.55a1.134,1.134,0,0,1-.945-.92L473.092,221.3a1.134,1.134,0,0,1,.916-1.32l1.116-.2a1.127,1.127,0,0,1,1.321.914l.256,1.4a5.43,5.43,0,0,0,.135.535,5.292,5.292,0,0,0,.257.68,5.605,5.605,0,0,0,.384.7,2.03,2.03,0,0,0,.367.432,2.5,2.5,0,0,0,.417.239,1.7,1.7,0,0,0,.563.11,8.214,8.214,0,0,0,1.284-.043c.559-.055,1.271-.161,2.11-.315h0l26.236-4.767c3.267-.594,3.808-1.134,3.859-1.193a2.477,2.477,0,0,0,.434-1.092,5.329,5.329,0,0,0-.063-1.823M437.2,87.388,425.928,122.6a32.4,32.4,0,0,0-.954,3.539,6.885,6.885,0,0,0-.131,2.115,3.055,3.055,0,0,0,.479,1.342,9.6,9.6,0,0,0,1.293,1.51,1.138,1.138,0,0,1,.073,1.551l-.736.864a1.146,1.146,0,0,1-.776.4c-.029,0-.06,0-.09,0a1.135,1.135,0,0,1-.737-.272l-12.293-10.478a1.137,1.137,0,0,1-.127-1.6l.738-.863a1.14,1.14,0,0,1,1.589-.136,4.794,4.794,0,0,0,2.142,1.243,1.054,1.054,0,0,0,.911-.208,3.49,3.49,0,0,0,.879-1.344c.31-.76.6-1.559.859-2.371l1.739-5.364-10.966-9.347-5.7,2.836a20.352,20.352,0,0,0-2.12,1.219,1.714,1.714,0,0,0-.718.8,1.378,1.378,0,0,0,.205.943,9.886,9.886,0,0,0,1.844,2.282,1.138,1.138,0,0,1,.06,1.539l-.735.864a1.135,1.135,0,0,1-1.6.129l-9.857-8.4a1.135,1.135,0,0,1-.127-1.6l.736-.863a1.133,1.133,0,0,1,1.541-.176,4.731,4.731,0,0,0,1.674.84,4.607,4.607,0,0,0,1.758.062,9.8,9.8,0,0,0,2.229-.631c.857-.348,1.836-.791,2.912-1.32l32.877-16.367a1.135,1.135,0,0,1,1.243.153l.819.7a1.135,1.135,0,0,1,.345,1.211M464,380.549A9.451,9.451,0,1,1,473.45,390,9.451,9.451,0,0,1,464,380.549m67-189.216-9.492,3.1q-1.058-3.237-2.2-6.436l9.414-3.36q1.184,3.33,2.274,6.693m-4.722-13.315-9.332,3.6q-1.223-3.167-2.524-6.293l9.228-3.849q1.355,3.25,2.628,6.537m-5.426-13-9.119,4.087q-1.389-3.1-2.853-6.16l9-4.324q1.527,3.182,2.973,6.4M514.734,152.3l-8.878,4.555q-1.554-3.027-3.187-6l8.755-4.789q1.7,3.1,3.31,6.238m-6.781-12.384-8.627,5.014q-1.711-2.945-3.5-5.836l8.488-5.242q1.861,3.011,3.639,6.064M500.522,127.9l-8.348,5.456q-1.865-2.853-3.8-5.652l8.2-5.672q2.019,2.91,3.955,5.868m-8.064-11.633-8.038,5.882q-2.015-2.754-4.1-5.453l7.874-6.088q2.172,2.8,4.261,5.659m-8.666-11.2-7.709,6.284q-2.158-2.647-4.38-5.239l7.534-6.479q2.319,2.689,4.555,5.434M469.7,89.122q2.455,2.569,4.84,5.19l-7.355,6.667q-2.3-2.533-4.657-5.007Zm-4.976-5.068-6.99,7.038q-2.429-2.412-4.922-4.756l6.8-7.224q2.58,2.435,5.108,4.942M454.383,74.3l-6.618,7.4q-2.555-2.285-5.17-4.5l6.423-7.583q2.707,2.3,5.365,4.68M443.539,65.09l-6.231,7.751q-2.673-2.148-5.4-4.228l6.027-7.921q2.827,2.16,5.607,4.4M426.372,52.339q2.943,2.01,5.839,4.1l-5.821,8.083q-2.787-2.007-5.624-3.945Zm-12-7.74q3.053,1.854,6.058,3.8l-5.392,8.388q-2.892-1.86-5.836-3.643Zm-12.4-7.1q3.15,1.689,6.254,3.47l-4.953,8.686q-2.988-1.7-6.027-3.327Zm-12.8-6.417q3.241,1.52,6.446,3.122l-4.492,8.956q-3.078-1.545-6.2-3.008ZM376.03,25.359q3.322,1.346,6.609,2.774l-4,9.177q-3.159-1.379-6.36-2.676Zm-13.445-5.018q3.4,1.164,6.758,2.42l-3.5,9.364q-3.231-1.208-6.5-2.336ZM348.9,16.054q3.445.978,6.859,2.049l-2.989,9.522q-3.283-1.031-6.6-1.981Zm-13.872-3.546q3.5.792,6.96,1.681l-2.472,9.658q-3.333-.854-6.7-1.615ZM334.048,39.5a20.751,20.751,0,0,1,5.159-1.985,21.1,21.1,0,0,1,5.587-.536,21.664,21.664,0,0,1,5.761,1.026,19.492,19.492,0,0,1,8.949,5.941,20.439,20.439,0,0,1,2.91,4.53,21.382,21.382,0,0,1,1.683,5.256,23.859,23.859,0,0,1,.325,5.779,25.04,25.04,0,0,1-1.158,6.064,26.286,26.286,0,0,1-2.567,5.68,24.288,24.288,0,0,1-3.625,4.628,21.639,21.639,0,0,1-4.476,3.423,20.611,20.611,0,0,1-5.112,2.081,19.839,19.839,0,0,1-4.954.621c-.188,0-.374,0-.561-.008a21.013,21.013,0,0,1-12.964-5.039,19.954,19.954,0,0,1-4.915-6.47,21.934,21.934,0,0,1-2.037-8.219,25.723,25.723,0,0,1,1.273-9.3,25.1,25.1,0,0,1,2.563-5.614,23.422,23.422,0,0,1,3.648-4.539,21.353,21.353,0,0,1,4.511-3.317M320.987,9.716q3.533.6,7.043,1.3L326.078,20.8q-3.375-.673-6.78-1.256ZM306.81,7.686q3.563.417,7.1.922l-1.426,9.854q-3.4-.492-6.837-.9ZM292.551,6.4q3.579.228,7.138.548l-.9,9.9q-3.425-.311-6.876-.532Zm-.21,26.247a2.213,2.213,0,0,0-.638-1.124,3.055,3.055,0,0,0-1.263-.643,16.478,16.478,0,0,0-2.147-.4,1.136,1.136,0,0,1-.985-1.268l.141-1.126a1.121,1.121,0,0,1,1.268-.987l17.126,2.141a1.135,1.135,0,0,1,.986,1.268l-.142,1.137a1.135,1.135,0,0,1-1.269.987,15.9,15.9,0,0,0-2.178-.136,3.054,3.054,0,0,0-1.378.315,2.249,2.249,0,0,0-.9.946,6.547,6.547,0,0,0-.624,2.3L296.957,63.1a9.67,9.67,0,0,0-.06,2.492,2.1,2.1,0,0,0,.419,1.076,1.837,1.837,0,0,0,.9.518,13.668,13.668,0,0,0,2,.385l3.941.492c1.162.144,2.168.246,2.992.3a15.351,15.351,0,0,0,2.107.02,5.691,5.691,0,0,0,1.433-.267,4.268,4.268,0,0,0,1.119-.6,15.165,15.165,0,0,0,1.4-1.078,10.2,10.2,0,0,0,1.113-1.152,15.233,15.233,0,0,0,1.1-1.539q.58-.915,1.285-2.171a1.134,1.134,0,0,1,1.323-.533l.97.3a1.137,1.137,0,0,1,.7,1.558L315,73.195a1.137,1.137,0,0,1-1.034.665,1.126,1.126,0,0,1-.141-.01L283.35,70.042a1.134,1.134,0,0,1-.987-1.268l.141-1.127a1.122,1.122,0,0,1,1.269-.987,15.594,15.594,0,0,0,2.179.137,3.06,3.06,0,0,0,1.381-.311,2.208,2.208,0,0,0,.895-.93,6.465,6.465,0,0,0,.62-2.278l3.533-28.27a6.42,6.42,0,0,0-.04-2.357M278.25,5.866q3.584.042,7.151.176l-.375,9.927q-3.435-.129-6.894-.17Zm-7.156.009.141,9.933q-3.453.049-6.884.188l-.4-9.927q3.563-.144,7.143-.194m-14.3.573.665,9.917q-3.45.233-6.874.551l-.926-9.9q3.558-.331,7.135-.566M247.539,31.1a22.012,22.012,0,0,1,5.524-3.058,25.139,25.139,0,0,1,11.545-1.3,27.785,27.785,0,0,1,3.514.72c.971.275,1.792.538,2.443.784a3.317,3.317,0,0,0,.939.24,2.088,2.088,0,0,0,.208-.537,4.981,4.981,0,0,0,.138-1.084,1.138,1.138,0,0,1,1.062-1.089l1.132-.073a1.146,1.146,0,0,1,1.2.977l1.83,13.035a1.138,1.138,0,0,1-1.052,1.292l-.987.064a1.13,1.13,0,0,1-1.125-.7,20.072,20.072,0,0,0-2.538-4.583,12.662,12.662,0,0,0-3.032-2.9,10.529,10.529,0,0,0-3.5-1.485,14.3,14.3,0,0,0-4.062-.29,13.557,13.557,0,0,0-5.991,1.688,12.717,12.717,0,0,0-4.183,3.882,16.606,16.606,0,0,0-2.4,5.685,25.426,25.426,0,0,0-.533,7.065,23.8,23.8,0,0,0,1.627,7.6,18.544,18.544,0,0,0,3.585,5.748,14.566,14.566,0,0,0,5.023,3.519,13.344,13.344,0,0,0,6.045.972,18.058,18.058,0,0,0,4.136-.759,14.045,14.045,0,0,0,3.3-1.519l-.717-11.158a17.3,17.3,0,0,0-.37-2.856,2.362,2.362,0,0,0-.59-1.176,1.977,1.977,0,0,0-1.091-.469,14.858,14.858,0,0,0-2.513-.105,1.121,1.121,0,0,1-1.167-1.063l-.068-1.074a1.137,1.137,0,0,1,1.061-1.207l15.914-1.024a1.154,1.154,0,0,1,1.208,1.061l.07,1.076a1.137,1.137,0,0,1-1.063,1.208l-.7.044c-1.538.1-1.962.686-2.148,1.119a3.081,3.081,0,0,0-.3,1.314,20.435,20.435,0,0,0,.031,2.619l.8,12.488a1.137,1.137,0,0,1-.5,1.016,29.02,29.02,0,0,1-7.1,3.521,30.8,30.8,0,0,1-7.665,1.463q-1.1.072-2.175.071a26.506,26.506,0,0,1-7.9-1.126,22.157,22.157,0,0,1-7.837-4.2,20.344,20.344,0,0,1-5.187-6.736,22.925,22.925,0,0,1-2.182-8.514,25.717,25.717,0,0,1,.245-5.409,26.907,26.907,0,0,1,1.4-5.425,23.747,23.747,0,0,1,2.6-5.04,18.661,18.661,0,0,1,4.088-4.3m-5-23.335,1.189,9.882q-3.432.412-6.837.913L235.441,8.7q3.539-.519,7.1-.939M228.37,9.837l1.716,9.817q-3.4.6-6.775,1.274l-1.978-9.764q3.507-.706,7.037-1.327m-14.035,2.839,2.237,9.706q-3.366.776-6.7,1.642l-2.5-9.65q3.465-.894,6.956-1.7m-15.12,31.7a20.828,20.828,0,0,0,.873,2.493l12.867,31.487a1.136,1.136,0,0,1-.622,1.483l-1,.407a1.144,1.144,0,0,1-.96-.048L175.848,61.94,184.2,82.372c1.214,2.965,1.928,3.453,2.058,3.521a3.6,3.6,0,0,0,2.834-.24l1.32-.539a1.134,1.134,0,0,1,1.481.621l.431,1.052a1.135,1.135,0,0,1-.621,1.481l-13.255,5.417a1.137,1.137,0,0,1-1.483-.623l-.429-1.051a1.136,1.136,0,0,1,.623-1.481l1.319-.539a4.943,4.943,0,0,0,1.6-.972A1.7,1.7,0,0,0,180.6,88a1.011,1.011,0,0,1,.037-.165c.021-.075.183-.805-.964-3.614l-10.625-26c-.244-.147-.522-.334-.837-.565a5.816,5.816,0,0,0-1.385-.717,6.377,6.377,0,0,0-1.959-.351,6.208,6.208,0,0,0-2.519.543,1.136,1.136,0,0,1-1.482-.621l-.408-1a1.136,1.136,0,0,1,.622-1.482l9.267-3.786a1.142,1.142,0,0,1,.975.053l32.025,17.465L195.6,48.821c-1.252-3.064-1.927-3.416-1.956-3.429a3.466,3.466,0,0,0-2.935.147l-1.267.518a1.136,1.136,0,0,1-1.483-.623l-.407-1a1.138,1.138,0,0,1,.623-1.481L201.3,37.6a1.122,1.122,0,0,1,.87,0,1.142,1.142,0,0,1,.613.618l.4.982a1.135,1.135,0,0,1-.622,1.48l-1.318.54a4.829,4.829,0,0,0-1.577.971,1.935,1.935,0,0,0-.587,1,3.036,3.036,0,0,0,.14,1.181m1.258-28.116,2.757,9.589q-3.315.954-6.593,2l-3.014-9.521q3.409-1.077,6.85-2.065m-13.647,4.313,3.274,9.445q-3.258,1.13-6.474,2.345L180.1,23q3.348-1.26,6.729-2.428M173.439,25.6l3.779,9.272q-3.18,1.3-6.317,2.674l-4.029-9.172q3.264-1.432,6.567-2.774m-13.052,5.719,4.271,9.067q-3.1,1.464-6.164,3l-4.51-8.948q3.182-1.6,6.4-3.122m-12.716,6.421,4.739,8.814q-3.022,1.626-6,3.324l-4.965-8.672q3.091-1.773,6.224-3.466M135.32,44.836l5.185,8.527q-2.93,1.782-5.805,3.644l-5.4-8.383q2.989-1.935,6.025-3.788m-5.664,28.431.876-.626a1.134,1.134,0,0,1,1.257-.042l31.446,19.438a31.694,31.694,0,0,0,3.2,1.779,6.915,6.915,0,0,0,2.024.639,3.118,3.118,0,0,0,1.42-.142,9.781,9.781,0,0,0,1.773-.892,1.134,1.134,0,0,1,1.52.305l.661.922a1.138,1.138,0,0,1-.262,1.588l-13.134,9.4a1.137,1.137,0,0,1-1.586-.263l-.66-.924a1.136,1.136,0,0,1,.251-1.576,4.775,4.775,0,0,0,1.723-1.777,1.045,1.045,0,0,0,.018-.933,3.454,3.454,0,0,0-1.093-1.18c-.64-.468-1.344-.941-2.094-1.4L152.214,94.6,140.5,102.98l1.376,6.218a20.174,20.174,0,0,0,.668,2.351,1.718,1.718,0,0,0,.6.89,1.358,1.358,0,0,0,.966.029,9.873,9.873,0,0,0,2.658-1.237,1.138,1.138,0,0,1,1.508.312l.661.922a1.138,1.138,0,0,1-.262,1.588l-10.531,7.535a1.135,1.135,0,0,1-1.585-.262l-.662-.922a1.137,1.137,0,0,1,.2-1.541,4.269,4.269,0,0,0,1.706-3.113,10.057,10.057,0,0,0-.078-2.315c-.128-.91-.323-1.968-.578-3.143l-7.947-35.855a1.136,1.136,0,0,1,.45-1.17m-6.287-20.7,5.624,8.233q-2.83,1.933-5.6,3.942l-5.836-8.075q2.884-2.091,5.817-4.1m-11.521,8.348,6.042,7.914q-2.724,2.079-5.389,4.228l-6.24-7.747q2.768-2.238,5.587-4.4m-11.062,8.936,6.439,7.572q-2.608,2.218-5.159,4.5l-6.627-7.4q2.646-2.377,5.347-4.675M90.209,79.346l6.818,7.214q-2.487,2.351-4.915,4.761l-7-7.031q2.52-2.511,5.1-4.944M80.141,89.365l7.183,6.844q-2.359,2.475-4.648,5.017L75.31,94.565q2.377-2.626,4.831-5.2M70.617,99.892l7.544,6.47q-2.225,2.6-4.379,5.249l-7.716-6.275q2.238-2.747,4.551-5.444M61.658,110.9l7.884,6.075q-2.083,2.706-4.1,5.467L57.4,116.566q2.088-2.857,4.256-5.668m-8.37,11.456,8.2,5.659q-1.938,2.81-3.805,5.671l-8.355-5.443q1.938-2.967,3.956-5.887m-7.753,11.873,8.5,5.226q-1.787,2.905-3.5,5.859l-8.631-5q1.776-3.063,3.636-6.081m-7.116,12.266,8.763,4.77q-1.629,3-3.182,6.038l-8.89-4.544q1.611-3.153,3.309-6.264m-6.456,12.623,9.019,4.307q-1.47,3.075-2.856,6.2l-9.135-4.075q1.44-3.234,2.972-6.429m-5.774,12.945,9.245,3.83q-1.3,3.148-2.526,6.339l-9.336-3.581q1.267-3.311,2.617-6.588M21.132,185.3l9.419,3.33q-1.135,3.213-2.187,6.463l-9.5-3.076q1.089-3.375,2.264-6.717m-4.341,13.465,9.564,2.822q-.96,3.255-1.837,6.544l-9.624-2.571q.9-3.411,1.9-6.795m-3.618,13.648,9.681,2.306q-.786,3.3-1.49,6.628l-9.728-2.05q.725-3.456,1.537-6.884m-2.894,13.81,9.771,1.789q-.61,3.333-1.138,6.695L9.106,233.17q.542-3.484,1.173-6.945M8.113,240.157l9.836,1.274q-.433,3.36-.786,6.745L7.3,247.161q.358-3.513.811-7m-1.44,14.022,9.881.758q-.26,3.376-.433,6.775l-9.9-.5q.177-3.525.448-7.032m-.8,20.861q0-3.4.085-6.792l9.909.247q-.081,3.263-.083,6.543c0,.082,0,.163,0,.245l-9.91.008c0-.084,0-.167,0-.251m.1,7.3,9.906-.265q.09,3.4.27,6.784l-9.9.523q-.183-3.513-.28-7.042m.74,14.067,9.881-.775q.267,3.395.622,6.761l-9.862,1.034q-.365-3.5-.641-7.02M8.18,310.424l9.837-1.293q.444,3.375.975,6.721L9.185,317.4q-.546-3.479-1.005-6.98m2.192,13.93,9.77-1.81q.62,3.346,1.326,6.661l-9.728,2.07q-.729-3.448-1.368-6.921m2.917,13.8,9.68-2.324q.8,3.309,1.676,6.585L15.02,345q-.912-3.408-1.731-6.845M16.93,351.8l9.563-2.841q.969,3.264,2.021,6.49l-9.494,3.1q-1.091-3.359-2.09-6.747m4.357,13.434,9.418-3.347q1.141,3.209,2.361,6.379l-9.335,3.6q-1.269-3.3-2.444-6.63m5.06,13.166,9.238-3.841q1.3,3.135,2.684,6.23l-9.127,4.083q-1.438-3.219-2.8-6.472m5.762,12.869,9.008-4.319q1.47,3.066,3.011,6.088l-8.885,4.548q-1.608-3.14-3.134-6.317m6.438,12.557,8.761-4.782q1.629,2.988,3.339,5.923l-8.632,5.011q-1.776-3.056-3.468-6.152m7.1,12.213,8.5-5.233q1.785,2.9,3.648,5.748L49.436,422q-1.937-2.961-3.79-5.967m7.74,11.837,8.2-5.667q1.938,2.8,3.947,5.557l-8.047,5.874q-2.093-2.857-4.1-5.764M61.742,439.3l7.885-6.079q2.085,2.7,4.236,5.351l-7.714,6.282Q63.9,442.1,61.742,439.3m8.952,10.987,7.545-6.474q2.225,2.594,4.513,5.13l-7.364,6.668q-2.387-2.634-4.694-5.324M84.72,465.411q-2.283-2.281-4.5-4.612l7.182-6.846q2.361,2.477,4.79,4.884l-7,7.038c-.157-.156-.318-.307-.475-.464m5.575,5.406,6.815-7.22q2.488,2.351,5.042,4.633l-6.629,7.4q-2.64-2.369-5.228-4.812m10.587,9.494,6.436-7.578q2.613,2.219,5.284,4.369l-6.236,7.753q-2.767-2.234-5.484-4.544m11.081,8.942L118,481.334q2.73,2.082,5.513,4.093l-5.828,8.083q-2.886-2.088-5.723-4.257m17.495,12.313q-3-1.935-5.944-3.954l5.619-8.237q2.838,1.935,5.725,3.8Zm5.634-23.2-.622.95a1.139,1.139,0,0,1-1.573.327L120.919,471.8a1.135,1.135,0,0,1-.328-1.573l.621-.949a1.138,1.138,0,0,1,1.573-.328l1.192.781a4.958,4.958,0,0,0,1.711.77,1.705,1.705,0,0,0,1.13-.151,1.294,1.294,0,0,1,.155-.064c.075-.024.771-.307,2.432-2.844l15.384-23.5c-.018-.283-.02-.617-.009-1.011a5.762,5.762,0,0,0-.195-1.543,6.376,6.376,0,0,0-.822-1.814,6.189,6.189,0,0,0-1.877-1.768,1.135,1.135,0,0,1-.33-1.571l.589-.9a1.138,1.138,0,0,1,.72-.49,1.122,1.122,0,0,1,.854.161l8.377,5.484a1.133,1.133,0,0,1,.507.833l3.786,36.281L167.6,460.478c1.812-2.769,1.717-3.524,1.712-3.555a3.467,3.467,0,0,0-1.786-2.334l-1.144-.749a1.137,1.137,0,0,1-.328-1.574l.59-.9a1.138,1.138,0,0,1,1.573-.328l11.858,7.763a1.136,1.136,0,0,1,.328,1.573l-.581.887a1.136,1.136,0,0,1-1.573.328l-1.193-.782a4.914,4.914,0,0,0-1.694-.747,1.951,1.951,0,0,0-1.164.088,3.11,3.11,0,0,0-.886.784h0a19.8,19.8,0,0,0-1.555,2.13l-18.633,28.463a1.134,1.134,0,0,1-.719.491,1.2,1.2,0,0,1-.231.024,1.142,1.142,0,0,1-.624-.186l-.9-.591a1.139,1.139,0,0,1-.5-.818l-4.556-38.789L133.5,470.12c-1.754,2.682-1.751,3.545-1.732,3.69a3.6,3.6,0,0,0,1.8,2.2l1.193.781a1.139,1.139,0,0,1,.328,1.574M141.657,509q-3.1-1.775-6.151-3.636l5.179-8.533q2.94,1.785,5.932,3.487Zm12.6,6.78q-3.2-1.608-6.348-3.306l4.735-8.824q3.033,1.627,6.115,3.173Zm12.97,6.08q-3.282-1.435-6.529-2.955l4.261-9.07q3.118,1.464,6.281,2.848Zm13.29,5.383q-3.358-1.257-6.684-2.6l3.765-9.275q3.2,1.3,6.431,2.513Zm13.575,4.668q-3.428-1.076-6.822-2.244l3.257-9.448q3.264,1.125,6.563,2.169Zm5.084-61.893a3.339,3.339,0,0,0-2.958-.111,4.189,4.189,0,0,0-.731.917,16.568,16.568,0,0,0-1.281,2.5l-10.488,24.349a19.894,19.894,0,0,0-1,2.721,3.532,3.532,0,0,0-.152,1.228h0c.006,0,.048.1.161.271a3.661,3.661,0,0,0,.5.6,6.754,6.754,0,0,0,.754.636,3.952,3.952,0,0,0,.747.432l1.361.587a1.135,1.135,0,0,1,.593,1.493l-.449,1.043a1.131,1.131,0,0,1-.623.607,1.148,1.148,0,0,1-.42.08,1.129,1.129,0,0,1-.449-.093l-16.3-7.023a1.135,1.135,0,0,1-.594-1.494l.451-1.041a1.137,1.137,0,0,1,1.492-.594l1.364.586a4.51,4.51,0,0,0,1.686.426,2.571,2.571,0,0,0,1.264-.311c.063-.033.7-.441,1.994-3.434l10.486-24.348c.272-.633.5-1.178.687-1.63a11.15,11.15,0,0,0,.384-1.09,3.4,3.4,0,0,0,.128-.673.751.751,0,0,0-.031-.288,2.709,2.709,0,0,0-.756-1.232,4.512,4.512,0,0,0-1.4-.96l-1.364-.587a1.137,1.137,0,0,1-.594-1.495l.426-.989a1.136,1.136,0,0,1,1.493-.593l16.3,7.022a1.137,1.137,0,0,1,.6,1.493l-.425.988a1.138,1.138,0,0,1-1.494.6Zm8.683,65.818q-3.471-.888-6.911-1.871l2.74-9.591q3.308.945,6.65,1.808Zm13.963,3.187q-3.518-.7-7.007-1.5l2.222-9.72q3.354.768,6.742,1.443Zm14.11,2.422q-3.547-.515-7.074-1.114l1.7-9.824q3.389.586,6.809,1.082Zm-16.346-23.361a1.131,1.131,0,0,1-.923.476,1.164,1.164,0,0,1-.262-.031l-1.1-.262a1.136,1.136,0,0,1-.857-.909l-6.679-38c-.153-.91-.295-1.622-.425-2.127a9.594,9.594,0,0,0-.352-1.136,1.874,1.874,0,0,0-.215-.416c-.144-.176-.3-.375-.447-.594a3.332,3.332,0,0,0-.969-.838,11.431,11.431,0,0,0-1.974-.86,1.135,1.135,0,0,1-.733-1.334l.248-1.048a1.137,1.137,0,0,1,1.369-.844l16.307,3.886a1.136,1.136,0,0,1,.842,1.37l-.251,1.048a1.143,1.143,0,0,1-1.261.862,11.721,11.721,0,0,0-2.554-.145,1.547,1.547,0,0,0-.887.312,2.034,2.034,0,0,0-.462,1.356,17.687,17.687,0,0,0,.352,3.722l4.162,23.185,13.357-18.745a31.039,31.039,0,0,0,2-3.12,1.863,1.863,0,0,0,.306-1.3,3.05,3.05,0,0,0-.182-.369,1.661,1.661,0,0,0-.322-.367,4.622,4.622,0,0,0-.814-.575,15.09,15.09,0,0,0-1.58-.778,1.134,1.134,0,0,1-.65-1.306l.25-1.047a1.143,1.143,0,0,1,1.368-.842l12.287,2.928a1.136,1.136,0,0,1,.841,1.372l-.251,1.047a1.163,1.163,0,0,1-1.188.867,8.34,8.34,0,0,0-1.731.034,2.524,2.524,0,0,0-1.056.362,11.337,11.337,0,0,0-3.549,3.458Zm30.568,25.028q-3.57-.325-7.121-.74l1.17-9.882q3.415.405,6.859.72Zm14.282.921q-3.582-.138-7.146-.367l.646-9.918q3.432.223,6.885.357Zm10.6.223c-1.152,0-2.3-.027-3.449-.042l.126-9.932c1.109.014,2.216.042,3.328.042,1.193,0,2.38-.029,3.569-.045l.132,9.932c-1.235.017-2.468.045-3.706.045m9.042-19.891h-.025l-31.83-.688a1.135,1.135,0,0,1-1.111-1.161l.025-1.136a1.139,1.139,0,0,1,1.161-1.111l1.426.031a5.46,5.46,0,0,0,.551-.025,5.375,5.375,0,0,0,.714-.118,5.229,5.229,0,0,0,.763-.235,2.052,2.052,0,0,0,.5-.274,2.3,2.3,0,0,0,.316-.358,1.723,1.723,0,0,0,.224-.533,8.191,8.191,0,0,0,.214-1.264c.058-.558.1-1.276.115-2.134l.576-26.66c.071-3.317-.35-3.956-.4-4.018a2.417,2.417,0,0,0-.982-.643,5.338,5.338,0,0,0-1.8-.3l-1.427-.031a1.135,1.135,0,0,1-1.111-1.159L252,481.46a1.132,1.132,0,0,1,.35-.8.986.986,0,0,1,.81-.315l31.83.688a1.135,1.135,0,0,1,1.111,1.1l.3,9a1.135,1.135,0,0,1-.327.837.967.967,0,0,1-.833.337l-1.194-.026a1.138,1.138,0,0,1-1.08-.868c-.148-.613-.273-1.213-.371-1.8a8.53,8.53,0,0,0-.355-1.411,4.45,4.45,0,0,0-.566-1.1,3.055,3.055,0,0,0-.908-.806,5.537,5.537,0,0,0-1.674-.617,14.855,14.855,0,0,0-2.815-.287l-10.211-.221-.3,13.934,7.885.171a12.02,12.02,0,0,0,2.985-.229,2.515,2.515,0,0,0,1.281-.681,3.128,3.128,0,0,0,.672-1.34c.182-.694.359-1.558.532-2.572a1.132,1.132,0,0,1,1.146-.944l1.134.025a1.135,1.135,0,0,1,1.111,1.16L282.2,508.95a1.137,1.137,0,0,1-1.136,1.112h-.024l-1.134-.024a1.135,1.135,0,0,1-1.1-1c-.127-1.025-.268-1.93-.422-2.688a3.111,3.111,0,0,0-.618-1.408,2.73,2.73,0,0,0-1.281-.762,11.069,11.069,0,0,0-2.933-.366l-7.883-.17-.306,14.176a2.335,2.335,0,0,0,.154.96c.024.056.1.23.451.408a4.182,4.182,0,0,0,1.687.274l6.925.149a21.626,21.626,0,0,0,3.946-.213,6.2,6.2,0,0,0,2.465-.968,8.743,8.743,0,0,0,2.113-2.135c.725-1,1.582-2.328,2.548-3.959a1.139,1.139,0,0,1,.978-.557h.024l1.25.026a1.136,1.136,0,0,1,1.042,1.53l-3.8,10.282a1.137,1.137,0,0,1-1.065.742m1.809,19.659-.393-9.928q3.456-.137,6.887-.363l.653,9.917q-3.564.234-7.147.374m14.288-.934-.918-9.9q3.443-.319,6.858-.726l1.181,9.881q-3.551.422-7.121.746m14.218-1.679-1.443-9.855q3.419-.5,6.809-1.088l1.706,9.823q-3.523.609-7.072,1.12m14.114-2.441-1.97-9.77q3.384-.683,6.738-1.448l2.229,9.712q-3.486.8-7,1.506m9.479-22.295a1.133,1.133,0,0,1-.737.462l-11.027,1.859a1.134,1.134,0,0,1-.99-.315l-16.256-16.184q-.436.1-.78.178c-.377.084-.726.156-1.043.22-.258.053-.506.093-.745.124l1.769,10.491c.56,3.321,1.191,3.775,1.217,3.793a.94.94,0,0,1,.113.087,3.276,3.276,0,0,0,2.8.5l1.619-.274a1.134,1.134,0,0,1,1.31.931l.188,1.119a1.135,1.135,0,0,1-.931,1.309l-18.066,3.047a1.211,1.211,0,0,1-.189.016,1.136,1.136,0,0,1-1.12-.948l-.188-1.118a1.135,1.135,0,0,1,.93-1.309l1.561-.264c2.1-.354,2.483-1.28,2.611-1.585.052-.115.321-.807-.2-3.9l-4.407-26.144c-.484-2.861-1-3.705-1.206-3.937a3.278,3.278,0,0,0-1.173-.471,4.751,4.751,0,0,0-1.7.022l-1.557.263a1.135,1.135,0,0,1-1.31-.93l-.18-1.064a1.136,1.136,0,0,1,.931-1.309l14.906-2.512c2.177-.369,4.131-.618,5.805-.74a21.586,21.586,0,0,1,4.343.052,13.907,13.907,0,0,1,3.438.986,11.492,11.492,0,0,1,2.972,1.877,10.952,10.952,0,0,1,2.232,2.719,10.287,10.287,0,0,1,1.244,3.5,11.7,11.7,0,0,1,0,4.034,10.183,10.183,0,0,1-1.473,3.7,12.738,12.738,0,0,1-2.928,3.122,17.314,17.314,0,0,1-2.817,1.755l8.979,9.089a30.3,30.3,0,0,0,2.952,2.655,11.405,11.405,0,0,0,2.489,1.488,8.971,8.971,0,0,0,2.451.649h0a16.151,16.151,0,0,0,2.963.035,1.124,1.124,0,0,1,1.2.944l.189,1.12a1.127,1.127,0,0,1-.194.848m4.474,19.1-2.488-9.65q3.342-.861,6.646-1.814l2.746,9.589q-3.438.983-6.9,1.875m13.762-3.936-3.007-9.52q3.288-1.039,6.538-2.167l3.264,9.446q-3.381,1.166-6.8,2.241m6.641-23.677a18.1,18.1,0,0,1-5.36,2.874,23.782,23.782,0,0,1-4.211,1.07c-1.312.2-2.462.316-3.517.368q-1.551.081-2.716.113a5.472,5.472,0,0,0-1.589.239c-.3.1-.367.241-.4.3a2.3,2.3,0,0,0,.006,1.208,1.137,1.137,0,0,1-.749,1.257l-1.1.382a1.162,1.162,0,0,1-.373.062,1.141,1.141,0,0,1-1.074-.765l-4.563-13.2a1.135,1.135,0,0,1,.7-1.445l1.1-.38a1.135,1.135,0,0,1,1.389.569,14.034,14.034,0,0,0,3.052,4.228,10.254,10.254,0,0,0,7.648,2.773,15.358,15.358,0,0,0,4.22-.832,10.5,10.5,0,0,0,2.957-1.531,7.966,7.966,0,0,0,1.9-2,5.171,5.171,0,0,0,.812-2.139,4.46,4.46,0,0,0-.206-2.1,4.739,4.739,0,0,0-1.137-1.883,6.361,6.361,0,0,0-2.111-1.268,19.894,19.894,0,0,0-3.643-.978c-1.52-.282-3.374-.582-5.514-.892-2.967-.441-5.466-.9-7.432-1.381a22.845,22.845,0,0,1-4.983-1.739,9.626,9.626,0,0,1-3.2-2.531,11.645,11.645,0,0,1-1.809-3.4,10.967,10.967,0,0,1-.559-4.683,11.439,11.439,0,0,1,1.458-4.538,13.877,13.877,0,0,1,3.334-3.874,18.192,18.192,0,0,1,8.834-3.635c1.1-.117,2.119-.179,3.041-.19.9-.009,1.7,0,2.4.02a4.019,4.019,0,0,0,1.3-.146.6.6,0,0,0,.375-.32,2.851,2.851,0,0,0,.106-1.385,1.133,1.133,0,0,1,.763-1.157l1.16-.4a1.137,1.137,0,0,1,1.444.7l4.6,13.312a1.138,1.138,0,0,1-.7,1.445l-1.161.4a1.134,1.134,0,0,1-1.4-.589,14.161,14.161,0,0,0-2.759-4.033,11.157,11.157,0,0,0-3.446-2.377,10.154,10.154,0,0,0-3.846-.815,11.5,11.5,0,0,0-4.036.667,7.918,7.918,0,0,0-2.364,1.287,7.235,7.235,0,0,0-1.647,1.815,5.457,5.457,0,0,0-.762,2.022,4.108,4.108,0,0,0,1.092,3.481,5.594,5.594,0,0,0,1.923,1.142,22.1,22.1,0,0,0,3.748,1.008c1.592.309,3.6.622,5.983.93,2.4.315,4.331.614,5.916.911s2.884.581,3.852.843a12.845,12.845,0,0,1,4.988,2.678,10.615,10.615,0,0,1,3.064,4.553,10.97,10.97,0,0,1,.523,5.054,12.576,12.576,0,0,1-1.682,4.811,15.049,15.049,0,0,1-3.648,4.081m6.884,19.015-3.518-9.364q3.227-1.212,6.409-2.508l3.772,9.271q-3.314,1.347-6.663,2.6m7.018-24.791a1.137,1.137,0,0,1-1.021-.634l-.5-1.017a1.135,1.135,0,0,1,.518-1.522l1.332-.656a4.537,4.537,0,0,0,1.417-1.005,2.573,2.573,0,0,0,.584-1.162c.017-.075.125-.823-1.314-3.748l-11.705-23.789c-.3-.619-.572-1.145-.8-1.581a9.981,9.981,0,0,0-.576-1,3.452,3.452,0,0,0-.423-.53.783.783,0,0,0-.243-.169,2.686,2.686,0,0,0-1.432-.226,4.48,4.48,0,0,0-1.637.44l-1.33.655a1.136,1.136,0,0,1-1.522-.516l-.477-.967a1.136,1.136,0,0,1,.518-1.522l15.928-7.838a1.135,1.135,0,0,1,1.521.517l.476.966a1.134,1.134,0,0,1-.518,1.522l-1.332.655a3.344,3.344,0,0,0-2,2.18,4.057,4.057,0,0,0,.221,1.151,17.026,17.026,0,0,0,1.069,2.6l11.706,23.788a19.633,19.633,0,0,0,1.42,2.521,3.549,3.549,0,0,0,.836.918c0-.007.1.024.309.052a3.84,3.84,0,0,0,.786.008,7.119,7.119,0,0,0,.971-.161,3.97,3.97,0,0,0,.807-.286h0l1.331-.654a1.133,1.133,0,0,1,1.521.517l.5,1.018a1.135,1.135,0,0,1-.518,1.522l-15.929,7.837a1.134,1.134,0,0,1-.5.117m6.209,19.424-4.018-9.174q3.144-1.377,6.244-2.834l4.261,9.069q-3.222,1.515-6.487,2.939m12.9-6.052-4.5-8.955q3.064-1.542,6.085-3.159l4.733,8.823q-3.138,1.686-6.316,3.291M408.415,509l-4.959-8.681q2.978-1.7,5.909-3.473l5.175,8.534q-3.041,1.85-6.125,3.62m12.16-7.406-5.4-8.387q2.883-1.855,5.71-3.789l5.614,8.238q-2.94,2.01-5.925,3.938m11.745-8.033-5.826-8.081q2.779-2.006,5.5-4.082l6.034,7.918q-2.83,2.163-5.71,4.245m11.3-8.634-6.234-7.752q2.668-2.146,5.278-4.361l6.428,7.582q-2.709,2.306-5.472,4.531m10.831-9.209-6.623-7.4q2.55-2.281,5.041-4.627l6.81,7.222q-2.588,2.442-5.228,4.806m10.9-10.307c-.189.189-.383.37-.572.559l-7-7.037q2.426-2.412,4.793-4.882l7.175,6.851q-2.174,2.274-4.4,4.509m9.242-9.7-7.361-6.668q2.295-2.535,4.52-5.133l7.539,6.478q-2.312,2.686-4.7,5.323m9.255-10.764-7.713-6.282q2.157-2.649,4.243-5.356l7.881,6.083q-2.169,2.8-4.411,5.555m8.676-11.224-8.044-5.879q2.014-2.757,3.957-5.568l8.2,5.671q-2.018,2.912-4.113,5.776m8.075-11.663-8.351-5.453q1.866-2.857,3.66-5.765l8.5,5.233q-1.861,3.015-3.805,5.985m7.448-12.066-8.631-5.009q1.711-2.95,3.351-5.946l8.761,4.782q-1.7,3.108-3.481,6.173m6.8-12.44L505.968,393q1.553-3.034,3.023-6.118L518,391.2q-1.53,3.2-3.149,6.349m6.131-12.783-9.13-4.078q1.389-3.113,2.7-6.268l9.24,3.842q-1.357,3.271-2.807,6.5m5.434-13.092-9.336-3.59q1.223-3.18,2.363-6.4l9.419,3.34q-1.182,3.34-2.446,6.65m4.716-13.364-9.495-3.087q1.048-3.228,2.015-6.492l9.563,2.832q-1,3.389-2.083,6.747m3.988-13.546-9.625-2.575q.876-3.277,1.67-6.587l9.68,2.315q-.817,3.438-1.725,6.847m3.268-13.728-9.728-2.061q.7-3.316,1.32-6.662l9.771,1.8q-.636,3.473-1.363,6.922m2.544-13.877-9.807-1.54q.527-3.346.969-6.722l9.837,1.285q-.453,3.5-1,6.977m1.816-13.978-9.862-1.026q.349-3.369.616-6.761l9.881.77q-.27,3.518-.635,7.017m1.09-14.051-9.9-.51q.174-3.381.263-6.783l9.906.256q-.09,3.527-.273,7.037" fill="#fff"/>
  </g>
</svg>
